<svg xmlns="http://www.w3.org/2000/svg" viewBox="0 0 225.53 89.16"><defs><style>.cls-1{fill:#282828;}</style></defs><g id="Logo_Artwork" data-name="Logo Artwork"><path class="cls-1" d="M39.39,78.18a34.05,34.05,0,0,1,0-67.2V0a44.92,44.92,0,0,0,0,89.16Z"/><path class="cls-1" d="M78.94,58.86v.39h-4v-6h3.92v.39H75.37V56h3v.37h-3v2.49Z"/><path class="cls-1" d="M86,54.25a2.07,2.07,0,0,0-.32-.28,2,2,0,0,0-.38-.2,2.23,2.23,0,0,0-.44-.13,2.78,2.78,0,0,0-.51,0,2,2,0,0,0-1.28.33,1.11,1.11,0,0,0-.4.9.91.91,0,0,0,.18.6,1.22,1.22,0,0,0,.57.36,7.63,7.63,0,0,0,1,.26,7.64,7.64,0,0,1,1.12.32,1.71,1.71,0,0,1,.73.49,1.31,1.31,0,0,1,.26.85,1.41,1.41,0,0,1-.16.69,1.27,1.27,0,0,1-.43.49,2.34,2.34,0,0,1-.68.3,3.49,3.49,0,0,1-.88.1,3.6,3.6,0,0,1-.88-.1,3.48,3.48,0,0,1-.8-.3A3,3,0,0,1,82,58.4l.23-.35a2.48,2.48,0,0,0,.42.36,2.62,2.62,0,0,0,.5.26,3.68,3.68,0,0,0,.59.18,3.42,3.42,0,0,0,.65.06,2.28,2.28,0,0,0,1.23-.29,1,1,0,0,0,.44-.86,1,1,0,0,0-.2-.64,1.5,1.5,0,0,0-.63-.41,8.37,8.37,0,0,0-1-.29,8.12,8.12,0,0,1-1.08-.3,1.43,1.43,0,0,1-.66-.45,1.25,1.25,0,0,1-.23-.78,1.51,1.51,0,0,1,.27-.91,1.64,1.64,0,0,1,.74-.57,3,3,0,0,1,1.11-.2,3.24,3.24,0,0,1,.72.08,2.55,2.55,0,0,1,.62.23,2.78,2.78,0,0,1,.53.39Z"/><path class="cls-1" d="M94.19,53.64H92v5.61h-.43V53.64H89.37v-.39h4.82Z"/><path class="cls-1" d="M100,59.29a2.54,2.54,0,0,1-1.2-.25,2.06,2.06,0,0,1-.77-.69,3,3,0,0,1-.41-1,5,5,0,0,1-.13-1.1v-3h.43v3a5.13,5.13,0,0,0,.1,1,2.57,2.57,0,0,0,.34.85,1.56,1.56,0,0,0,.63.59,2.41,2.41,0,0,0,2,0,1.76,1.76,0,0,0,.63-.61,2.38,2.38,0,0,0,.33-.84,4.32,4.32,0,0,0,.1-.95v-3h.43v3a4.69,4.69,0,0,1-.13,1.14,2.85,2.85,0,0,1-.43,1,2.09,2.09,0,0,1-.77.67A2.52,2.52,0,0,1,100,59.29Z"/><path class="cls-1" d="M106.38,59.25v-6h2a2.88,2.88,0,0,1,1.58.41,2.43,2.43,0,0,1,1,1.08,3.5,3.5,0,0,1,.31,1.5,3.45,3.45,0,0,1-.34,1.59,2.51,2.51,0,0,1-1,1.05,3,3,0,0,1-1.51.37Zm4.4-3a3,3,0,0,0-.28-1.34,2.15,2.15,0,0,0-.82-.92,2.37,2.37,0,0,0-1.31-.34h-1.56v5.22h1.56a2.4,2.4,0,0,0,1.32-.35,2.14,2.14,0,0,0,.82-.94A3.16,3.16,0,0,0,110.78,56.24Z"/><path class="cls-1" d="M114.83,59.25v-6h.43v6Z"/><path class="cls-1" d="M121.66,59.29a2.58,2.58,0,0,1-1.14-.26,2.7,2.7,0,0,1-.88-.69,3.17,3.17,0,0,1-.58-1,3.31,3.31,0,0,1-.2-1.12,3.12,3.12,0,0,1,.21-1.14,2.93,2.93,0,0,1,.6-1,2.82,2.82,0,0,1,.89-.68,2.63,2.63,0,0,1,2.26,0,3,3,0,0,1,.88.7,3.44,3.44,0,0,1,.57,1,3,3,0,0,1,.2,1.1,3.13,3.13,0,0,1-.21,1.15,3.08,3.08,0,0,1-.59,1,3,3,0,0,1-.9.68A2.57,2.57,0,0,1,121.66,59.29Zm-2.37-3a2.86,2.86,0,0,0,.67,1.83,2.26,2.26,0,0,0,.75.59,2.23,2.23,0,0,0,1.93,0,2.48,2.48,0,0,0,.75-.61,2.89,2.89,0,0,0,.65-1.81,2.8,2.8,0,0,0-.18-1,2.73,2.73,0,0,0-.49-.84,2.4,2.4,0,0,0-.76-.59,2,2,0,0,0-.94-.22,2.11,2.11,0,0,0-1,.23,2.43,2.43,0,0,0-.75.6,3.39,3.39,0,0,0-.48.85A2.9,2.9,0,0,0,119.29,56.25Z"/><path class="cls-1" d="M131.94,58.57a1.93,1.93,0,0,0,.5.23,2.19,2.19,0,0,0,.66.09,1.55,1.55,0,0,0,.77-.16,1,1,0,0,0,.44-.49,2.46,2.46,0,0,0,.2-.8c0-.31.05-.68.05-1.09v-3.1H135v3a11.45,11.45,0,0,1-.06,1.22,3.21,3.21,0,0,1-.25,1,1.4,1.4,0,0,1-.56.62,2.06,2.06,0,0,1-1,.21,2.75,2.75,0,0,1-.73-.09,2.13,2.13,0,0,1-.59-.28Z"/><path class="cls-1" d="M141.34,59.29a2.54,2.54,0,0,1-1.2-.25,2.06,2.06,0,0,1-.77-.69,3,3,0,0,1-.41-1,4.48,4.48,0,0,1-.13-1.1v-3h.43v3a5.13,5.13,0,0,0,.1,1,2.57,2.57,0,0,0,.34.85,1.56,1.56,0,0,0,.63.59,2.41,2.41,0,0,0,2,0,1.76,1.76,0,0,0,.63-.61,2.38,2.38,0,0,0,.33-.84,4.32,4.32,0,0,0,.1-.95v-3h.43v3a5.24,5.24,0,0,1-.13,1.14,2.85,2.85,0,0,1-.43,1,2.18,2.18,0,0,1-.77.67A2.52,2.52,0,0,1,141.34,59.29Z"/><path class="cls-1" d="M147.75,59.25v-6h2.49a1.63,1.63,0,0,1,.7.16,1.91,1.91,0,0,1,.55.43,2.28,2.28,0,0,1,.36.6,1.74,1.74,0,0,1,.13.67,2.14,2.14,0,0,1-.17.84,1.89,1.89,0,0,1-.5.65,1.5,1.5,0,0,1-.74.32l1.5,2.33h-.5L150.12,57h-1.94v2.26Zm.43-2.66h2.1a1.09,1.09,0,0,0,.67-.21,1.52,1.52,0,0,0,.45-.55,1.79,1.79,0,0,0,.15-.72,1.48,1.48,0,0,0-.18-.72,1.56,1.56,0,0,0-.48-.54,1.13,1.13,0,0,0-.67-.21h-2Z"/><path class="cls-1" d="M155.66,59.25v-6h.43v6Zm.37-6.89-.3-.14.51-.71h.49Z"/><path class="cls-1" d="M160.1,59.25v-6h2a2.89,2.89,0,0,1,1.59.41,2.41,2.41,0,0,1,.94,1.08,3.51,3.51,0,0,1,.32,1.5,3.45,3.45,0,0,1-.35,1.59,2.55,2.55,0,0,1-1,1.05,3.08,3.08,0,0,1-1.52.37Zm4.41-3a3.18,3.18,0,0,0-.28-1.34,2.22,2.22,0,0,0-.82-.92,2.4,2.4,0,0,0-1.32-.34h-1.56v5.22h1.56a2.42,2.42,0,0,0,1.33-.35,2.12,2.12,0,0,0,.81-.94A3,3,0,0,0,164.51,56.24Z"/><path class="cls-1" d="M168.56,59.25v-6H169v6Z"/><path class="cls-1" d="M172.59,56.2a3.2,3.2,0,0,1,.74-2,2.8,2.8,0,0,1,.89-.7,2.71,2.71,0,0,1,1.2-.26,2.42,2.42,0,0,1,1.37.37,2.23,2.23,0,0,1,.84.94l-.35.2a2,2,0,0,0-.52-.66,2.21,2.21,0,0,0-.66-.35,2.48,2.48,0,0,0-.71-.1,2.21,2.21,0,0,0-1,.23,2.31,2.31,0,0,0-.75.6,2.85,2.85,0,0,0-.61,1.79,2.77,2.77,0,0,0,.18,1,3,3,0,0,0,.51.85,2.4,2.4,0,0,0,.76.59,2,2,0,0,0,.94.22,2.39,2.39,0,0,0,.74-.12,2.33,2.33,0,0,0,.71-.38,1.88,1.88,0,0,0,.53-.67l.37.18a2,2,0,0,1-.58.76,2.89,2.89,0,0,1-.86.47,2.86,2.86,0,0,1-.94.16,2.38,2.38,0,0,1-1.12-.27,2.67,2.67,0,0,1-.89-.71,3.07,3.07,0,0,1-.58-1A3.12,3.12,0,0,1,172.59,56.2Z"/><path class="cls-1" d="M183.59,59.29a2.58,2.58,0,0,1-1.14-.26,2.81,2.81,0,0,1-.88-.69,3.17,3.17,0,0,1-.58-1,3.31,3.31,0,0,1-.2-1.12,3.12,3.12,0,0,1,.21-1.14,2.93,2.93,0,0,1,.6-1,2.82,2.82,0,0,1,.89-.68,2.63,2.63,0,0,1,2.26,0,3,3,0,0,1,.88.7,3.44,3.44,0,0,1,.57,1,3,3,0,0,1,.2,1.1,3.13,3.13,0,0,1-.21,1.15,3.08,3.08,0,0,1-.59,1,3,3,0,0,1-.9.68A2.57,2.57,0,0,1,183.59,59.29Zm-2.37-3a2.86,2.86,0,0,0,.67,1.83,2.26,2.26,0,0,0,.75.59,2.23,2.23,0,0,0,1.93,0,2.37,2.37,0,0,0,.75-.61,2.89,2.89,0,0,0,.65-1.81,2.8,2.8,0,0,0-.18-1,2.73,2.73,0,0,0-.49-.84,2.4,2.4,0,0,0-.76-.59,2,2,0,0,0-.94-.22,2.14,2.14,0,0,0-1,.23,2.28,2.28,0,0,0-.74.6,3.14,3.14,0,0,0-.49.85A2.9,2.9,0,0,0,181.22,56.25Z"/><path class="cls-1" d="M86.17,43.42c-1.58,0-3.17.61-4.57.61-4.06,0-6.66-2.72-6.66-6.86s2.58-6.91,6.7-6.91h.43c1.6,0,2.2.47,3.8.47L86.4,34c-1.25-2-2.69-3.36-4.35-3.36-2.62,0-5,2.37-5,6.56,0,3.93,2.17,6.58,4.74,6.58,1.64,0,3.56-.78,5-3.94Z"/><path class="cls-1" d="M90.07,38.66c0,.25,0,.5,0,.78A3.34,3.34,0,0,0,93.21,43a3.54,3.54,0,0,0,3.16-1.56l.16.14c-.9,1.28-1.91,2.48-4,2.48A4.34,4.34,0,0,1,88,39.44a4.34,4.34,0,0,1,4.59-4.59,3.76,3.76,0,0,1,3.84,3.81Zm4.31-.34c.16-1.32-.45-3.18-1.81-3.18s-2.21,1.23-2.46,3.18Z"/><path class="cls-1" d="M97.6,35.24l2.85-.39v2.38c.78-1.31,1.8-2.38,3.42-2.38a2,2,0,0,1,1.68.61,1,1,0,0,1-.74,1.67,1.12,1.12,0,0,1-.9-.5,1.5,1.5,0,0,0-1.35-.73c-.86,0-1.6,1-2.11,2.13v4a2.27,2.27,0,0,0,.77,1.86V44H97.78v-.16A2.13,2.13,0,0,0,98.5,42V37.25a1.92,1.92,0,0,0-.9-1.85Z"/><path class="cls-1" d="M111.87,35.14h-2v6.11c0,.92,0,1.84,1.1,1.84a1.71,1.71,0,0,0,1.36-.61l.14.1A3.08,3.08,0,0,1,110,44c-1.66,0-2.07-1-2.07-2.89v-6h-1.62v-.29a5.83,5.83,0,0,0,3.44-3h.15l0,3h2Z"/><path class="cls-1" d="M115,38.66c0,.25,0,.5,0,.78A3.34,3.34,0,0,0,118.16,43a3.56,3.56,0,0,0,3.16-1.56l.16.14c-.9,1.28-1.92,2.48-4,2.48a4.33,4.33,0,0,1-4.58-4.59,4.33,4.33,0,0,1,4.58-4.59,3.77,3.77,0,0,1,3.85,3.81Zm4.31-.34c.16-1.32-.45-3.18-1.82-3.18s-2.2,1.23-2.46,3.18Z"/><path class="cls-1" d="M124.74,43.73h2.87A2.89,2.89,0,0,0,130,41.92h.21L129.83,44H122.3v-.14l5.38-8.75H125.4c-1.09,0-1.85.59-2.77,1.78h-.2l.35-2.07H130v.21Z"/><path class="cls-1" d="M136.35,43A4.32,4.32,0,0,1,133.48,44c-1.54,0-2.6-.65-2.6-2.33,0-2.81,3.26-3.3,5.45-3.3,0-1.21.08-3.26-1.66-3.26-1.42,0-1.7,1-1.7,2.23,0,.39-.54.6-.86.6a.89.89,0,0,1-.91-.8c0-1.81,2.34-2.32,3.76-2.32,1.61,0,3.3.68,3.32,2.54l0,4.72a1.27,1.27,0,0,0,1,1.19v.16l-2.68.57C136.62,43.93,136.35,43,136.35,43Zm0-4.22c-.17,0-.33,0-.51,0a2.75,2.75,0,0,0-2.92,2.59c0,1.19.46,2.05,1.75,2.05a2.82,2.82,0,0,0,1.68-.76Z"/><path class="cls-1" d="M144.9,47.68c1.48,0,2.4-2.54,2.87-3.65h-.45l-3-6.56c-.6-1.31-.87-2-1.66-2.46v-.16H146V35c-.25.41-.09,1.07.28,1.89l2.28,5.21,2.05-5.19a2,2,0,0,0-.16-1.91v-.16h2.15V35a4.51,4.51,0,0,0-1.87,2.44L148.08,44c-.74,1.83-1.68,4.74-4.1,4.88a1.56,1.56,0,0,1-1.83-1.41.94.94,0,0,1,1.15-1C144,46.7,144.06,47.68,144.9,47.68Z"/><path class="cls-1" d="M167.78,37.15c0,4.12-2,6.88-5.47,6.88h-5.76v-.16a2.14,2.14,0,0,0,.72-1.86V32.27a2.11,2.11,0,0,0-.72-1.85v-.16h5.84C165.84,30.26,167.78,33.05,167.78,37.15Zm-8.55-6.59V43.73h2.16c2.35,0,4.36-2.71,4.36-6.58s-2.09-6.59-4.59-6.59Z"/><path class="cls-1" d="M170.94,38.66c0,.25,0,.5,0,.78A3.34,3.34,0,0,0,174.08,43a3.56,3.56,0,0,0,3.16-1.56l.16.14c-.9,1.28-1.91,2.48-4,2.48a4.34,4.34,0,0,1-4.59-4.59,4.34,4.34,0,0,1,4.59-4.59,3.76,3.76,0,0,1,3.84,3.81Zm4.31-.34c.16-1.32-.45-3.18-1.81-3.18s-2.21,1.23-2.46,3.18Z"/><path class="cls-1" d="M178.47,35.24l2.85-.39v2.38c.78-1.31,1.8-2.38,3.42-2.38a2,2,0,0,1,1.68.61,1,1,0,0,1-.74,1.67,1.12,1.12,0,0,1-.9-.5,1.5,1.5,0,0,0-1.35-.73c-.86,0-1.6,1-2.11,2.13v4a2.29,2.29,0,0,0,.76,1.86V44h-3.43v-.16a2.15,2.15,0,0,0,.72-1.86V37.25a1.92,1.92,0,0,0-.9-1.85Z"/><path class="cls-1" d="M189.13,38.66c0,.25,0,.5,0,.78A3.34,3.34,0,0,0,192.27,43a3.56,3.56,0,0,0,3.17-1.56l.15.14c-.9,1.28-1.91,2.48-4,2.48A4.34,4.34,0,0,1,187,39.44a4.34,4.34,0,0,1,4.59-4.59,3.76,3.76,0,0,1,3.84,3.81Zm4.31-.34c.16-1.32-.44-3.18-1.81-3.18s-2.21,1.23-2.46,3.18Z"/><path class="cls-1" d="M205.21,41.55c-.89,1.28-1.91,2.48-4,2.48a4.34,4.34,0,0,1-4.59-4.59,4.4,4.4,0,0,1,4.59-4.67,4.32,4.32,0,0,1,3.54,1.37,1,1,0,0,1-.61,1.7.88.88,0,0,1-.76-.61c-.65-1.35-1.09-2.17-2.17-2.17-1.52,0-2.69,1.8-2.54,4.38A3.44,3.44,0,0,0,201.9,43a3.56,3.56,0,0,0,3.16-1.56Z"/><path class="cls-1" d="M208.63,29.87v7.34c.78-1.31,1.68-2.36,3.3-2.36,1.44,0,2.56.72,2.56,2.28l0,4.88a2.26,2.26,0,0,0,.76,1.86V44h-3.44v-.16a2.13,2.13,0,0,0,.72-1.86l0-4.49a1.5,1.5,0,0,0-1.42-1.64c-1.19,0-1.93,1-2.48,1.92V42a2.26,2.26,0,0,0,.76,1.86V44H206v-.16a2.15,2.15,0,0,0,.72-1.86V32.27a2,2,0,0,0-.9-1.85v-.16Z"/><path class="cls-1" d="M221,34.85a4.33,4.33,0,0,1,4.58,4.59,4.59,4.59,0,1,1-9.17,0A4.34,4.34,0,0,1,221,34.85Zm0,8.88c1.52,0,2.53-1.72,2.53-4.29s-1-4.3-2.53-4.3-2.56,1.72-2.56,4.3S219.4,43.73,221,43.73Z"/><path class="cls-1" d="M37.36,19V48.07h7.22V28a19.54,19.54,0,0,1-7.22,35.83v6.3a25.78,25.78,0,0,0,0-51.17Z"/></g></svg>